<?xml version="1.0" encoding="utf-8"?>
<!-- Generator: Adobe Illustrator 15.1.0, SVG Export Plug-In  -->
<!DOCTYPE svg PUBLIC "-//W3C//DTD SVG 1.1//EN" "http://www.w3.org/Graphics/SVG/1.1/DTD/svg11.dtd" [
	<!ENTITY ns_flows "http://ns.adobe.com/Flows/1.0/">
]>
<svg version="1.1"
	 xmlns="http://www.w3.org/2000/svg" xmlns:xlink="http://www.w3.org/1999/xlink" xmlns:a="http://ns.adobe.com/AdobeSVGViewerExtensions/3.0/"
	 x="0px" y="0px" viewBox="-0.494 -0.517 314 173"
	 overflow="visible" enable-background="new -0.494 -0.517 314 173" xml:space="preserve">
<defs>
</defs>
<path fill="#B43325" d="M120.413,84.968c0,0.059-1.579,1.645-4.733,4.766c-2.63-1.683-5.144-2.521-7.544-2.521
	c-1.541,0-2.309,0.435-2.309,1.308c0,0.578,1.235,1.258,3.701,2.031c3.338,1.048,5.63,1.926,6.874,2.635
	c2.467,1.419,3.698,3.181,3.698,5.289c0,4.689-3.83,7.038-11.489,7.038c-2.051,0-4.115-0.411-6.188-1.229
	c-1.964-0.786-3.512-1.764-4.647-2.93c-0.032-0.03-0.055-0.075-0.066-0.131c0-0.044,1.588-1.577,4.764-4.599
	c1.125,0.543,2.247,1.089,3.372,1.633c1.408,0.592,2.7,0.888,3.881,0.888c1.71,0,2.569-0.479,2.569-1.441
	c0-0.666-1.234-1.323-3.701-1.98c-3.361-0.885-5.663-1.671-6.907-2.358c-2.467-1.363-3.699-3.233-3.699-5.612
	c0-1.822,1.189-3.461,3.568-4.911c2.346-1.418,4.964-2.127,7.856-2.127c2.117,0,4.201,0.399,6.253,1.194
	c1.964,0.764,3.523,1.735,4.68,2.913C120.378,84.865,120.399,84.915,120.413,84.968z"/>
<path fill="#B43325" d="M155.915,95.79c0,0.522-0.083,2.075-0.248,4.648c-0.185,2.727-0.316,4.105-0.392,4.139l-6.205-0.374
	l-0.129-0.133c-0.022-0.392-0.012-0.9,0.032-1.522c0.065-0.861,0.097-1.368,0.097-1.522c0.077-2.194,0.116-4.108,0.116-5.744
	c0-2.542-0.896-3.813-2.686-3.813c-2.29,0-3.61,0.895-3.96,2.687v0.636c0,3.449-0.086,6.446-0.261,8.985
	c-0.011,0.056-0.032,0.1-0.066,0.133l-6.204,0.097c-0.063-0.054-0.102-0.097-0.111-0.13l-0.068-8.691
	c-0.022-2.748-0.948-4.122-2.782-4.122c-1.955,0-3.193,0.75-3.715,2.258c0,0.009,0,0.04,0,0.097l0.309,10.181
	c0,0.076-0.015,0.124-0.047,0.148l-6.531,0.194c-0.022-0.019-0.182-5.831-0.477-17.43c0-0.075,0.012-0.12,0.034-0.132l6.35-0.098
	c0.109,0.054,0.164,0.207,0.164,0.458c0,0.109-0.015,0.29-0.042,0.542c-0.027,0.249-0.039,0.434-0.039,0.556
	c0,0.436,0.157,0.656,0.474,0.656c0.12,0,0.224-0.034,0.311-0.102c0.96-0.794,1.686-1.332,2.176-1.604
	c0.951-0.545,1.943-0.821,2.979-0.821c2.532,0,4.431,0.842,5.697,2.526c0.055,0.062,0.301,0.428,0.736,1.095
	c0.077,0.12,0.18,0.178,0.31,0.178c0.186,0,0.545-0.293,1.081-0.881c0.676-0.733,1.327-1.278,1.948-1.638
	c1.025-0.579,2.227-0.869,3.601-0.869C153.399,86.377,155.915,89.514,155.915,95.79z"/>
<path fill="#B43325" d="M173.936,104.516c-0.058,0.25-0.766,0.473-2.131,0.669c-1.104,0.152-1.975,0.229-2.62,0.229
	c-3.771,0-6.696-0.916-8.77-2.745c-1.825-1.626-2.732-3.691-2.732-6.199c0-2.378,0.561-4.562,1.686-6.559
	c1.548-2.746,3.833-4.121,6.856-4.121c5.031,0,7.546,2.642,7.546,7.927c0,0.499-0.119,1.231-0.358,2.19
	c-0.296,1.146-0.614,1.798-0.954,1.963l-8.768-0.264c-0.296-0.012-0.445,0.088-0.445,0.297c0,0.27,0.149,0.695,0.445,1.274
	c0.817,1.637,2.457,2.455,4.924,2.455c1.355,0,3.007-0.292,4.959-0.88c0.056,0.038,0.132,0.617,0.23,1.733
	C173.892,103.532,173.936,104.209,173.936,104.516z M169.45,93.294c0-1.635-0.843-2.447-2.521-2.447
	c-1.276,0-2.265,0.548-2.964,1.647c-0.524,0.827-0.785,1.713-0.785,2.657c0,0.206,0.147,0.31,0.443,0.31l4.959-0.129
	C169.162,95.309,169.45,94.63,169.45,93.294z"/>
<path fill="#B43325" d="M183.708,81.58l-0.195,22.936c0,0.062-0.041,0.117-0.119,0.162l-6.938,0.195
	c-0.064-0.032-0.098-0.075-0.098-0.13V81.551c0-0.077,0.012-0.122,0.033-0.133h7.283C183.698,81.43,183.708,81.483,183.708,81.58z"
	/>
<path fill="#B43325" d="M193.936,81.58l-0.199,22.936c0,0.062-0.035,0.117-0.11,0.162l-6.941,0.195
	c-0.067-0.032-0.098-0.075-0.098-0.13V81.551c0-0.077,0.008-0.122,0.03-0.133h7.284C193.924,81.43,193.936,81.483,193.936,81.58z"/>
<path fill="#B43325" d="M213.774,88.884c0,0.131-1.211,1.359-3.636,3.697c-1.405-0.708-2.326-1.146-2.751-1.312
	c-1.111-0.423-2.194-0.635-3.238-0.635c-1.342,0-2.014,0.376-2.014,1.126c0,0.504,1,1.067,2.996,1.687
	c2.738,0.863,4.587,1.568,5.549,2.112c1.984,1.115,2.979,2.52,2.979,4.221c0,3.713-3.04,5.568-9.118,5.568
	c-1.618,0-3.234-0.315-4.86-0.952c-1.572-0.608-2.8-1.368-3.681-2.273c-0.036-0.03-0.058-0.088-0.069-0.165
	c0-0.051,1.206-1.226,3.617-3.517c1.64,0.784,2.548,1.217,2.737,1.292c1.145,0.457,2.192,0.689,3.141,0.689
	c1.431,0,2.141-0.428,2.141-1.277c0-0.568-0.988-1.119-2.978-1.655c-2.726-0.727-4.563-1.357-5.516-1.88
	c-1.982-1.081-2.978-2.57-2.978-4.471c0-1.461,0.949-2.765,2.848-3.911c1.867-1.124,3.946-1.688,6.235-1.688
	c1.628,0,3.258,0.32,4.895,0.954c1.574,0.618,2.803,1.385,3.701,2.29C213.774,88.793,213.774,88.827,213.774,88.884z"/>
<path fill="#B43325" d="M248.097,103.971c0,0.045-0.048,0.09-0.133,0.135h-18.709c-0.067-0.045-0.097-0.09-0.097-0.135
	l-0.199-22.521c0-0.042,0.036-0.092,0.102-0.146l7.479-0.133c0.063,0.056,0.098,0.1,0.098,0.133l0.063,17.577
	c0,0.177,0.138,0.264,0.412,0.264h10.851c0.085,0.043,0.133,0.098,0.133,0.164V103.971z"/>
<path fill="#B43325" d="M258.897,85.541c0,0.833-0.364,1.572-1.096,2.228c-0.807,0.724-1.841,1.081-3.095,1.081
	c-1.274,0-2.334-0.366-3.175-1.097c-0.763-0.654-1.146-1.41-1.146-2.258c0-0.829,0.368-1.565,1.098-2.21
	c0.809-0.709,1.84-1.064,3.095-1.064c1.286,0,2.348,0.358,3.174,1.08C258.517,83.944,258.897,84.694,258.897,85.541z
	 M258.358,91.369l-0.459,14.175c0,0.033-0.01,0.077-0.032,0.13l-6.645,0.035c-0.067-0.047-0.098-0.088-0.098-0.132
	c0.044-4.758,0.142-9.548,0.294-14.37l0.08-0.033l6.762,0.065C258.334,91.283,258.368,91.326,258.358,91.369z"/>
<path fill="#B43325" d="M280.913,105.739c0,0.057-0.021,0.105-0.065,0.151l-7.005,0.26l-0.034-0.03l-5.333-4.961
	c-0.099-0.089-0.194-0.134-0.296-0.134c-0.308,0-0.453,0.088-0.443,0.264c0,0.023,0.034,0.607,0.098,1.752
	c0.111,1.8,0.167,3.062,0.167,3.779c0,0.054-0.034,0.098-0.102,0.132l-6.432-0.26c-0.022-0.025-0.03-0.067-0.03-0.134l0.405-25.927
	c0-0.042,0.024-0.076,0.069-0.097l6.822-0.196c0.056,0.033,0.083,0.077,0.083,0.13l-1.112,14.614
	c0.107,0.188,0.246,0.279,0.407,0.279c0.177,0,0.294-0.058,0.363-0.179l4.532-7.643l6.694-0.067
	c0.062,0.055,0.096,0.099,0.096,0.132c0,0.097-1.771,3.264-5.319,9.493c-0.271,0.471-0.409,0.725-0.409,0.771
	c0,0.161,1.143,1.464,3.423,3.894C279.77,104.196,280.913,105.525,280.913,105.739z"/>
<path fill="#B43325" d="M295.971,104.516c-0.056,0.25-0.765,0.473-2.127,0.669c-1.104,0.152-1.978,0.229-2.619,0.229
	c-3.774,0-6.699-0.916-8.774-2.745c-1.82-1.626-2.734-3.691-2.734-6.199c0-2.378,0.564-4.562,1.688-6.559
	c1.548-2.746,3.836-4.121,6.859-4.121c5.029,0,7.546,2.642,7.546,7.927c0,0.499-0.122,1.231-0.36,2.19
	c-0.294,1.146-0.61,1.798-0.952,1.963l-8.77-0.264c-0.296-0.012-0.443,0.088-0.443,0.297c0,0.27,0.147,0.695,0.443,1.274
	c0.816,1.637,2.461,2.455,4.924,2.455c1.354,0,3.007-0.292,4.961-0.88c0.054,0.038,0.133,0.617,0.229,1.733
	C295.928,103.532,295.971,104.209,295.971,104.516z M291.485,93.294c0-1.635-0.841-2.447-2.521-2.447
	c-1.274,0-2.265,0.548-2.958,1.647c-0.525,0.827-0.789,1.713-0.789,2.657c0,0.206,0.148,0.31,0.443,0.31l4.961-0.129
	C291.197,95.309,291.485,94.63,291.485,93.294z"/>
<path fill="#941E1E" d="M144.172,151.947c0.342,5.95-3.502,10.333-11.53,13.148c-5.551,1.957-13.731,3.244-24.545,3.866
	c-0.631,0.04-1.857,0.11-3.679,0.214c-1.542,0.068-2.761,0.136-3.648,0.209c-0.114-0.058-0.173-0.153-0.181-0.286l-2.896-50.227
	c-0.007-0.128,0.01-0.216,0.05-0.266c0.915-0.027,2.142-0.102,3.68-0.21c1.822-0.105,3.051-0.178,3.681-0.213
	c10.812-0.624,19.099-0.285,24.861,1.017c8.317,1.854,12.65,5.767,12.996,11.737c0.215,3.734-2.149,7.235-7.086,10.507
	c-0.209,0.145-0.31,0.278-0.302,0.407c0.01,0.198,0.127,0.354,0.351,0.472C141.207,145.006,143.957,148.212,144.172,151.947z
	 M128.59,132.6c-0.243-4.191-4.505-6.058-12.79-5.576c-0.587,0.032-0.87,0.224-0.851,0.57l0.809,11.151
	c0.02,0.37,0.334,0.534,0.945,0.498c0.824-0.046,2.002-0.235,3.535-0.559C125.973,137.526,128.758,135.5,128.59,132.6z
	 M129.699,151.813c-0.167-2.894-3.166-4.574-8.995-5.043c-1.622-0.127-2.812-0.168-3.572-0.126c-0.611,0.038-0.906,0.229-0.885,0.58
	l0.647,11.219c0.021,0.368,0.294,0.539,0.813,0.509c3.544-0.203,6.375-0.86,8.495-1.962
	C128.659,155.713,129.824,153.985,129.699,151.813z"/>
<path fill="#941E1E" d="M184.711,139.937c0.125,2.171,0.169,6.696,0.129,13.574c-0.044,7.55-0.227,11.432-0.543,11.644
	l-10.139,0.653c-0.134-0.06-0.205-0.162-0.213-0.314c-0.022-0.369-0.008-0.921,0.035-1.655c0.044-0.731,0.056-1.276,0.038-1.624
	c-0.021-0.368-0.304-0.536-0.849-0.506c-0.063,0.003-0.171,0.032-0.32,0.083c-3.385,1.134-6.671,1.795-9.867,1.979
	c-4.829,0.276-8.593-0.396-11.293-2.02c-2.699-1.622-4.14-3.998-4.323-7.13c-0.212-3.716,1.862-6.703,6.226-8.962
	c3.815-1.944,8.768-3.09,14.857-3.441c0.562-0.035,1.421-0.027,2.568,0.012c1.146,0.042,1.983,0.048,2.504,0.019
	c0.541-0.028,0.768-0.911,0.666-2.653c-0.071-1.22-0.666-2.265-1.785-3.138c-1.236-0.977-2.788-1.412-4.659-1.307
	c-2.54,0.148-4.423,1.2-5.641,3.144c-0.078,0.181-0.238,0.431-0.482,0.747l-11.762,2.021c-0.11-0.039-0.181-0.122-0.211-0.248
	c0.041-0.024,0.083-0.071,0.125-0.14c3.069-7.638,8.651-11.688,16.741-12.156C178.166,127.848,184.236,131.651,184.711,139.937z
	 M174.192,149.313c0.014-0.484-1.49-0.637-4.508-0.462c-2.371,0.139-4.264,0.63-5.679,1.473c-1.517,0.918-2.233,2.115-2.148,3.596
	c0.152,2.628,2.548,3.812,7.177,3.543c3.394-0.194,5.091-0.584,5.099-1.177L174.192,149.313z"/>
<path fill="#941E1E" d="M230.077,161.635c0.004,0.107-0.033,0.209-0.115,0.303l-13.932,1.326l-0.063-0.062l-11.205-9.267
	c-0.205-0.168-0.409-0.243-0.603-0.232c-0.61,0.037-0.893,0.229-0.851,0.571c0,0.044,0.135,1.205,0.397,3.479
	c0.424,3.578,0.676,6.083,0.76,7.517c0.008,0.111-0.054,0.199-0.18,0.272l-12.846,0.22c-0.05-0.042-0.076-0.126-0.082-0.259
	l-2.166-51.711c-0.005-0.088,0.033-0.151,0.119-0.202l13.58-1.176c0.109,0.059,0.171,0.141,0.177,0.253l-0.539,29.253
	c0.238,0.354,0.522,0.525,0.849,0.508c0.346-0.021,0.579-0.156,0.698-0.402l8.155-15.755l13.332-0.9
	c0.139,0.105,0.206,0.189,0.21,0.254c0.011,0.196-3.16,6.705-9.509,19.526c-0.491,0.969-0.731,1.493-0.728,1.581
	c0.02,0.327,2.438,2.782,7.267,7.369C227.625,158.689,230.049,161.201,230.077,161.635z"/>
<path fill="#941E1E" d="M246.801,120.288c0.098,1.65-0.547,3.173-1.926,4.562c-1.53,1.528-3.544,2.362-6.041,2.509
	c-2.546,0.147-4.697-0.461-6.458-1.822c-1.596-1.215-2.44-2.672-2.54-4.368c-0.096-1.652,0.545-3.162,1.932-4.527
	c1.526-1.51,3.54-2.334,6.041-2.478c2.564-0.148,4.719,0.447,6.452,1.784C245.857,117.146,246.704,118.592,246.801,120.288z
	 M246.396,131.96l0.714,28.298c0.004,0.063-0.013,0.153-0.048,0.266l-13.238,0.828c-0.136-0.079-0.207-0.165-0.213-0.25
	c-0.461-9.482-0.812-19.039-1.063-28.671l0.159-0.071l13.479-0.65C246.34,131.79,246.41,131.872,246.396,131.96z"/>
<path fill="#941E1E" d="M292.159,136.751c0.132,2.283,0.199,8.397,0.209,18.346c-0.014,0.151-0.083,0.279-0.211,0.372l-12.53,0.102
	c-0.042-0.04-0.071-0.151-0.079-0.324c-0.328-8.336-0.595-14.266-0.8-17.789c-0.304-5.259-2.273-7.786-5.913-7.575
	c-3.945,0.228-6.391,1.827-7.335,4.805l0.006,0.132l1.501,20.333c0.01,0.156-0.008,0.251-0.048,0.299l-12.936,0.941
	c-0.138-0.102-0.211-0.195-0.215-0.283l-2.181-34.432c-0.004-0.085,0.056-0.179,0.179-0.275l12.688-0.727
	c0.159,0.1,0.249,0.31,0.269,0.639c0.012,0.196-0.002,0.517-0.044,0.968c-0.037,0.451-0.051,0.773-0.041,0.967
	c0.037,0.676,0.359,0.993,0.97,0.961c0.197-0.01,0.753-0.393,1.668-1.144c1.127-0.94,2.206-1.656,3.25-2.154
	c1.653-0.81,3.49-1.277,5.512-1.396C286.1,118.938,291.465,124.683,292.159,136.751z"/>
<path fill="#941E1E" d="M308.472,130.792c-2.342,1.068-6.118,1.75-11.328,2.048l0.286-5.763l6.695-0.82l0.375-1.928l-1.357,0.24
	c-1.964,0.113-3.617-0.277-4.959-1.167c-1.434-0.969-2.202-2.358-2.31-4.163c-0.235-4.11,2.433-6.32,8-6.641
	c3.002-0.175,5.563,0.59,7.685,2.295c0.505,0.404,0.931,1.093,1.274,2.077c0.159,0.887,0.324,1.824,0.487,2.821
	c0.123,2.143-0.207,4.209-0.984,6.207C311.442,128.233,310.156,129.837,308.472,130.792z"/>
<path fill="#7BB0A4" d="M77.29,128.702H9.143l7.929,38.44c0,0,8.108,4.644,23.253,5.188l-0.958-39.466h10.502l-3.222,39.443
	c14.86-0.631,23.249-5.165,23.249-5.165L77.29,128.702z"/>
<path fill="#64998B" d="M36.071,132.864l4.253,39.466c0.936,0.036,1.898,0.055,2.891,0.055c1.183,0,2.324-0.03,3.431-0.077
	l4.657-39.443H36.071z"/>
<polygon fill="#64998B" points="16.601,129.103 23.067,169.549 27.277,170.684 26.3,129.817 "/>
<polygon fill="#64998B" points="61.698,129.103 61.197,170.236 65.601,168.865 71.401,129.817 "/>
<path fill="#A5BF55" d="M43.417,62.888c-0.127-0.203-0.201-0.324-0.201-0.324C43.237,62.659,43.308,62.771,43.417,62.888z"/>
<path fill="#BED060" d="M74.465,114.987c0,0,4.707-1.748,4.574-8.466c-0.137-6.722-9.949-5.11-9.949-5.11s9.005-3.22,8.2-11.693
	c-0.807-8.469-15.191-5.509-14.386-8.067c0.812-2.553,1.749-6.989-3.224-10.215c-4.649-3.014-14.689-6.848-16.263-8.547
	c0.936,1.528,4.76,8.099,2.147,9.756c-2.953,1.883-16.924,4.168-15.724,13.3c0.532,0.382,1.174,0.791,1.972,1.223
	c5.242,2.823,15.459-0.184,19.845-0.45c4.391-0.27,6.364,3.226,4.214,5.736c-2.088,2.438-23.196,2.968-29.691-5.994
	c-4.099,0.859-10.336,3.149-11.664,9.17c-2.018,9.147,3.627,14.791,3.627,14.791s-0.121-0.019-0.345-0.045
	c0.819,1.009,2.172,2.338,5.032,3.877c6.652,3.585,30.005-1.117,35.575-1.459c5.57-0.337,7.987,5.602,5.264,8.783
	c-2.729,3.182-41.272,3.19-48.64-9.2c-0.436-0.729-0.844-1.544-1.096-2.277c-3.548-0.091-8.261,0.267-9.634,2.604
	c-2.282,3.897-5.106,12.771,12.367,19.492c17.474,6.72,41.802,8.062,52.825,1.343c11.023-6.72,12.098-8.201,12.235-12.905
	C81.858,115.929,74.465,114.987,74.465,114.987z"/>
<polygon fill="#A5BF55" points="35.749,114.297 35.691,114.239 36.915,114.239 36.96,114.297 "/>
<path fill="#95A93D" d="M55.872,92.452c2.15-2.51,0.177-6.005-4.214-5.736c-4.386,0.266-14.603,3.273-19.845,0.45
	c-0.798-0.432-1.44-0.841-1.972-1.223c0,0.002,0,0.004,0,0.008c0,0-1.547,0.067-3.66,0.507C32.676,95.42,53.784,94.89,55.872,92.452
	z"/>
<path fill="#95A93D" d="M63.67,121.576c2.724-3.182,0.307-9.12-5.264-8.783c-5.569,0.342-28.922,5.044-35.575,1.459
	c-2.86-1.539-4.213-2.868-5.032-3.877c-0.638-0.077-2.103-0.229-3.866-0.276c0.252,0.733,0.661,1.548,1.096,2.277
	C22.398,124.767,60.941,124.758,63.67,121.576z"/>
<path fill="#AC2B24" d="M46.693,101.758l1.373-0.22L32.32,83.091l1.989-26.595c0,0-4.287-0.401-8.596,0.511l2.527,26.744
	L46.693,101.758z"/>
<path fill="#EA5432" d="M28.241,83.75l-2.527-26.744c-1.169,0.248-2.336,0.591-3.424,1.069l3.503,26.068l19.635,17.818l1.265-0.204
	L28.241,83.75z"/>
<path fill="#AC2B24" d="M12.065,64.371c-3.627,0.705-7.034,0.097-7.034,0.097l8.633,24.985l25.272,13.557l3.265-0.524L17.791,87.739
	L12.065,64.371z"/>
<path fill="#EA5432" d="M17.171,62.175c-1.509,1.195-3.333,1.851-5.106,2.196l5.726,23.368l24.411,14.746l2.142-0.347L22.079,85.791
	L17.171,62.175z"/>
<path fill="#EFD3B9" d="M22.29,58.076c-1.459,0.634-2.765,1.509-3.712,2.706c-0.423,0.529-0.897,0.993-1.406,1.394l4.907,23.616
	l22.265,16.348l1.084-0.177L25.792,84.144L22.29,58.076z"/>
<path fill="#BED060" d="M25.04,101.873c0,0,7.199-8.692,20.106-2.731c12.904,5.959,16.762,4.523,18.507,4.165l-9.906,4.661H31.163
	L25.04,101.873z"/>
<path fill="#54120C" d="M27.071,8.896c-0.128,0.432-0.161,0.879-0.056,1.253c0.11,0.376,0.384,0.622,0.715,0.742
	c0.657,0.251,1.472,0.071,2.054-0.3c0.586-0.39,0.966-0.929,1.083-1.539c0.129-0.712,0.083-1.399-0.121-2.031
	c-0.38-1.238-1.43-2.167-2.708-2.634c-0.627-0.229-1.302-0.367-1.968-0.384c-0.166-0.005-0.332-0.005-0.491,0.003l-0.563,0.053
	c-0.24,0.06-0.574,0.109-0.88,0.211c-1.22,0.378-2.257,1.177-2.933,2.202c-0.669,1.025-0.979,2.238-0.847,3.377
	c0.075,0.571,0.22,1.127,0.48,1.656c0.302,0.61,0.678,1.209,1.12,1.801c0.884,1.191,2.01,2.333,3.258,3.478
	c2.436,2.318,5.531,4.722,7.541,8.492c0.124,0.23,0.237,0.468,0.348,0.707l0.174,0.381l0.128,0.319
	c0.223,0.554,0.375,1.024,0.521,1.562c0.29,1.045,0.434,2.157,0.414,3.271c-0.022,2.236-0.769,4.355-1.786,6.09
	c-2.072,3.5-4.967,5.804-7.603,8.129c-1.357,1.1-2.581,2.266-3.709,3.559c-0.558,0.649-1.079,1.332-1.505,2.07
	c-0.439,0.733-0.773,1.533-0.868,2.428c-0.219-0.879-0.104-1.834,0.116-2.733c0.239-0.897,0.602-1.756,1.017-2.586
	c0.822-1.646,1.931-3.16,3.05-4.574c2.243-2.746,4.512-5.438,5.744-8.232c0.612-1.395,0.897-2.766,0.802-4.077
	c-0.048-0.654-0.194-1.301-0.405-1.946c-0.103-0.307-0.252-0.672-0.376-0.93l-0.14-0.29l-0.033-0.071
	c0.017,0.046-0.017-0.021-0.017-0.025l-0.066-0.12c-0.083-0.153-0.169-0.31-0.264-0.462c-1.451-2.475-4.053-4.553-6.744-7.03
	c-1.332-1.257-2.713-2.637-3.9-4.312c-0.583-0.846-1.124-1.769-1.562-2.762c-0.476-1.075-0.761-2.261-0.81-3.454
	c-0.108-2.391,0.686-4.761,2.145-6.557c1.432-1.814,3.54-3.062,5.764-3.465C23.743,0.054,24.293,0.011,24.926,0l0.765,0.037
	c0.281,0.021,0.554,0.059,0.827,0.102c1.095,0.184,2.142,0.547,3.087,1.107c0.948,0.553,1.803,1.28,2.473,2.186
	c0.669,0.901,1.141,1.995,1.253,3.117c0.107,1.107-0.095,2.233-0.513,3.201c-0.467,1.063-1.413,1.9-2.452,2.205
	c-1.021,0.301-2.158,0.27-3.056-0.374c-0.441-0.325-0.728-0.867-0.71-1.38C26.608,9.696,26.816,9.253,27.071,8.896z"/>
<path fill="#54120C" d="M10.086,35.834c0.302,0.636,0.464,1.386,0.348,2.146c-0.12,0.752-0.504,1.5-1.092,2.039
	c-1.159,1.096-2.849,1.607-4.527,1.301c-0.84-0.164-1.647-0.532-2.35-1.161c-0.235-0.202-0.579-0.53-0.84-0.849
	c-0.272-0.312-0.508-0.66-0.73-1.027c-0.897-1.467-1.117-3.407-0.675-5.085c0.422-1.701,1.377-3.164,2.564-4.342
	c1.194-1.182,2.666-2.088,4.325-2.601c1.649-0.525,3.526-0.612,5.296-0.116c1.774,0.484,3.356,1.522,4.549,2.77
	c0.6,0.629,1.12,1.303,1.575,2.001l0.34,0.521c0.107,0.161,0.264,0.426,0.363,0.611c0.223,0.408,0.41,0.853,0.57,1.316
	c0.692,1.862,0.489,4.18-0.286,5.887c-0.751,1.743-1.842,3.043-2.923,4.167c-1.099,1.113-2.232,2.048-3.328,2.916
	c-0.517,0.43-1.137,0.865-1.53,1.23c-0.348,0.306-0.793,0.755-1.146,1.205c-0.73,0.922-1.363,1.978-1.81,3.101
	c-0.438,1.125-0.72,2.323-0.64,3.562c0.062,1.239,0.525,2.525,1.385,3.711c-1.341-0.564-2.552-1.709-3.227-3.194
	c-0.682-1.479-0.896-3.176-0.715-4.79c0.173-1.621,0.659-3.186,1.42-4.651c0.405-0.74,0.8-1.415,1.417-2.142
	c0.57-0.659,1.009-1.146,1.525-1.675c1.947-2.02,3.887-3.893,4.701-5.597c0.393-0.846,0.509-1.504,0.367-2.345
	c-0.031-0.21-0.098-0.427-0.172-0.657c-0.046-0.134-0.055-0.182-0.112-0.327c-0.032-0.062-0.095-0.202-0.091-0.2l-0.106-0.187
	c-0.281-0.501-0.6-0.966-0.948-1.376c-1.364-1.678-3.306-2.422-5.457-1.976c-2.113,0.429-4.231,2.022-5.029,4.043
	c-0.392,1.006-0.425,2.082-0.016,3.12c0.103,0.255,0.223,0.513,0.38,0.761c0.153,0.253,0.29,0.441,0.543,0.74
	c0.292,0.371,0.751,0.715,1.272,0.905c1.038,0.4,2.406,0.341,3.447-0.328c0.525-0.33,0.965-0.81,1.216-1.413
	C10.182,37.241,10.21,36.539,10.086,35.834z"/>
</svg>
