<?xml version="1.0" encoding="utf-8"?>
<!-- Generator: Adobe Illustrator 16.0.0, SVG Export Plug-In . SVG Version: 6.00 Build 0)  -->
<!DOCTYPE svg PUBLIC "-//W3C//DTD SVG 1.1//EN" "http://www.w3.org/Graphics/SVG/1.1/DTD/svg11.dtd">
<svg version="1.1" id="Layer_1" xmlns="http://www.w3.org/2000/svg" xmlns:xlink="http://www.w3.org/1999/xlink" x="0px" y="0px"
	 viewBox="0 0 931.579 792" enable-background="new 0 0 931.579 792" xml:space="preserve">
<path fill="#E63A77" d="M598.162,379.962c26.875,60.076-108.578,86.859-108.578,86.859c-3.428-5.715-66.283-123.435-18.277-133.719
	c47.994-10.283,55.998,37.715,55.998,37.715S578.732,336.532,598.162,379.962z"/>
<path fill="#F27590" d="M672.224,378.188c37.291,24.667-30.633,89.35-30.633,89.35c-4.051-2.029-82.965-46.646-59.184-70.025
	c23.785-23.382,45.85,1.234,45.85,1.234S645.269,360.355,672.224,378.188z"/>
<path fill="#E63A77" d="M619.558,308.704c14.068,18.385-30.125,38.527-30.125,38.527c-1.635-1.68-32.689-36.879-17.094-44.291
	c15.598-7.408,22.223,8.373,22.223,8.373S609.386,295.413,619.558,308.704z"/>
<path fill="#F27590" d="M770.868,335.587c10.643,13.908-22.791,29.146-22.791,29.146c-1.236-1.271-24.73-27.899-12.932-33.507
	c11.8-5.604,16.812,6.334,16.812,6.334S763.172,325.532,770.868,335.587z"/>
<polygon fill="#5AB9A4" points="493.802,281.611 701.21,292.393 716.613,89.227 403.076,118.622 406.306,277.693 432.566,278.869 
	432.857,324.23 "/>
<path fill="#4A4420" d="M30.271,500.956c-0.002,46.962,6.55,96.225,74.119,142.839C190.21,703,301.777,672.108,357.336,622.267
	c59.644-53.506,120.874-215.857,51.333-300.302c-66.289-80.496-224.695,0.18-281.433,37.549
	C86.077,386.622,31.632,429.496,30.271,500.956z"/>
<radialGradient id="SVGID_1_" cx="234.3911" cy="456.0898" r="212.5475" gradientTransform="matrix(0.8778 -0.479 0.2991 0.5481 -107.786 318.3678)" gradientUnits="userSpaceOnUse">
	<stop  offset="0.6112" style="stop-color:#FBF5AE"/>
	<stop  offset="0.7158" style="stop-color:#E9E693"/>
	<stop  offset="0.9454" style="stop-color:#BFCA4F"/>
	<stop  offset="1" style="stop-color:#B5C43F"/>
</radialGradient>
<path fill="url(#SVGID_1_)" d="M107.63,382.539c16.367-11.521,91.952-70.008,185.796-84.393
	c93.846-14.385,134.299,38.112,139.064,95.96c7.693,93.437-133.017,266.638-298.101,211.839
	C60.451,581.4,37.496,546.28,36.076,511.135C33.479,446.883,91.262,394.06,107.63,382.539z"/>
<radialGradient id="SVGID_2_" cx="235.6396" cy="429.6895" r="95.4403" gradientTransform="matrix(0.6129 -0.7901 0.6778 0.5258 -200.0285 389.9604)" gradientUnits="userSpaceOnUse">
	<stop  offset="0.0555" style="stop-color:#D3813E"/>
	<stop  offset="1" style="stop-color:#772815"/>
</radialGradient>
<path fill="url(#SVGID_2_)" d="M135.67,461.917c0.963-2.987,2.134-5.811,3.519-8.393c13.325-24.855,35.771-49.131,59.66-63.692
	c24.661-15.031,82.197-36.99,117.479-0.342c14.513,15.078,16.492,40.42,13.016,59.402c-4.644,25.34-19.742,48.714-38.122,66.386
	c-10.052,9.662-22.451,18.952-35.134,24.894c-22.146,10.374-45.665,14.889-69.82,9.4c-24.15-5.488-43.489-18.694-51.128-43.458
	C131.188,493.309,131.172,475.85,135.67,461.917z"/>
<path fill="#81321A" d="M135.445,462.14c0.963-2.987,2.134-5.811,3.519-8.393c13.325-24.855,35.771-49.131,59.66-63.692
	c24.661-15.031,82.197-36.99,117.479-0.342c14.513,15.078,16.492,40.42,13.016,59.402c-4.644,25.34-19.742,48.714-38.122,66.386
	c-10.052,9.662-22.451,18.952-35.134,24.894c-22.146,10.374-45.665,14.889-69.82,9.4c-24.15-5.488-43.489-18.694-51.128-43.458
	C130.964,493.531,130.947,476.072,135.445,462.14z"/>
<path fill="#923A1F" d="M166.417,416.369c0,0-39.108,71.685,22.903,94.855c53.525,20,133.223-20.954,140.977-71.13
	c6.522-42.205-29.857-81.562-85.19-68.229C189.773,385.199,166.417,416.369,166.417,416.369z"/>
<path fill="#A64824" d="M303.952,393.791c13.482,22.97-3.038,57.697-36.893,77.566c-33.857,19.872-72.231,17.363-85.711-5.604
	c-13.48-22.968,3.039-57.694,36.895-77.566C252.099,368.316,290.474,370.824,303.952,393.791z"/>
<ellipse transform="matrix(0.9266 -0.376 0.376 0.9266 -134.6463 122.801)" fill="#B55A27" cx="247.333" cy="406.409" rx="31.016" ry="21.3"/>
<polygon fill="#6F4139" points="464.161,508 865.661,539.545 855.161,678.5 719.242,666.5 706.242,676 694.742,664 571.742,654 
	558.742,663.5 546.242,652 420.161,632.5 "/>
<polygon fill="#301E1A" points="865.661,539.545 868.161,566 858.161,698 855.161,669.5 "/>
<polygon fill="#442B25" points="565.161,581 549.661,643 561.9,654.26 573.784,589.623 "/>
<polygon fill="#301E1A" points="575.161,645 584.661,600.5 573.784,589.623 561.9,654.26 562.161,654.5 "/>
<polygon fill="#301E1A" points="445.354,561.215 441.297,572.694 707.545,595.454 710.067,579.459 "/>
<polygon fill="#301E1A" points="861.18,595.002 735.112,582.545 732.611,597.597 860.089,608.494 "/>
<polygon fill="#442B25" points="707.545,595.454 698.161,655 708.161,669.5 708.488,669.229 719.495,603.358 "/>
<polygon fill="#301E1A" points="708.488,669.229 722.661,657.5 732.611,597.597 720.628,596.572 "/>
<polygon fill="#301E1A" points="727.197,557.264 712.661,563 710.067,579.459 707.545,595.454 720.628,604.333 732.611,597.597 
	735.112,582.545 740.161,552.147 "/>
<polygon fill="#442B25" points="420.161,655 420.161,632.5 549.661,643 562.161,654.5 575.161,645 698.161,655 708.488,667 
	722.661,657.5 855.161,669.5 858.161,698 "/>
<polygon fill="#6F4139" points="481.661,512.5 578.161,469.5 586.661,475 596.661,463 678.661,429.337 686.161,432 694.661,421.5 
	776.161,387 833.661,416 840.161,426 849.161,423 910.661,456.09 910.661,478 609.661,623 479.161,534.5 "/>
<polygon fill="#301E1A" points="483.144,511.839 539.161,547.5 543.161,562.5 552.161,557.5 612.161,596.5 708.661,548.5 
	720.661,554.17 726.661,541.5 810.161,499.5 822.661,505 827.661,493 910.661,456.09 910.661,478 609.661,623 479.161,534.5 "/>
<polygon fill="#301E1A" points="539.161,547.5 833.661,416 840.161,426 552.161,557.5 543.161,562.5 "/>
<polygon fill="#442B25" points="596.661,463 726.661,541.5 720.661,554.17 708.661,548.5 586.661,475 "/>
<polygon fill="#442B25" points="695.161,420.5 828.661,492.33 822.661,505 810.661,499.33 685.161,432.5 "/>
<g>
	<path fill="#FFFFFF" d="M461.459,158.831c0,0.742-0.371,1.113-1.113,1.113h-18.833c-0.714,0-1.071-0.371-1.071-1.113l-0.231-27.001
		c0-0.728,0.365-1.105,1.096-1.134l7.591-0.168c0.745-0.014,1.118,0.357,1.118,1.113v20.471h10.33c0.742,0,1.113,0.378,1.113,1.134
		V158.831z"/>
	<path fill="#FFFFFF" d="M483.275,148.983c0,3.233-0.75,5.893-2.247,7.979c-1.694,2.366-4.102,3.548-7.223,3.548
		c-3.388,0-6.068-0.969-8.042-2.908c-1.974-1.939-2.96-4.602-2.96-7.989c0-3.471,0.714-6.292,2.142-8.461
		c1.68-2.547,4.178-3.821,7.496-3.821c3.414,0,6.096,1.099,8.041,3.296C482.343,142.727,483.275,145.512,483.275,148.983z
		 M475.065,149.184c0-1.743-0.735-2.615-2.204-2.615c-0.729,0-1.31,0.412-1.743,1.234c-0.35,0.684-0.525,1.43-0.525,2.239
		c0,1.716,0.713,2.574,2.141,2.574c0.799,0,1.407-0.397,1.827-1.192C474.897,150.795,475.065,150.049,475.065,149.184z"/>
	<path fill="#FFFFFF" d="M507.777,138.926c0,0.322-0.868,3.556-2.604,9.7l-2.078,7.265c-0.211,0.854-0.512,1.918-0.903,3.191
		c-0.238,0.546-0.595,0.819-1.071,0.819h-11.127c-0.49,0-0.854-0.273-1.092-0.819c-0.211-0.84-0.483-1.917-0.819-3.233
		l-3.779-14.613c-0.364-1.483-0.546-2.274-0.546-2.373c0-0.756,0.371-1.126,1.113-1.113l7.012,0.126
		c0.561,0.014,0.903,0.301,1.029,0.861l2.582,12.22l3.045-12.262c0.14-0.532,0.496-0.805,1.07-0.819l7.055-0.042
		C507.406,137.834,507.777,138.199,507.777,138.926z"/>
	<path fill="#FFFFFF" d="M525.624,158.558c0,0.504-0.84,0.987-2.52,1.449c-1.399,0.392-2.478,0.588-3.233,0.588
		c-3.653,0-6.621-1.015-8.902-3.044c-2.38-2.113-3.569-4.969-3.569-8.566c0-3.401,0.735-6.396,2.204-8.986
		c1.764-3.135,4.213-4.703,7.35-4.703c5.696,0,8.545,3.472,8.545,10.414c0,0.77-0.23,1.89-0.693,3.359
		c-0.531,1.708-1.078,2.555-1.637,2.541l-8.021-0.315c0.574,1.96,1.96,2.939,4.158,2.939c0.938,0,2.47-0.35,4.598-1.05
		c0.098-0.028,0.217-0.042,0.357-0.042c0.573,0,0.93,0.364,1.07,1.092c0.014,0.014,0.056,0.602,0.126,1.764
		C525.568,157.746,525.624,158.6,525.624,158.558z M519.388,145.132c0-1.295-0.574-1.943-1.723-1.943
		c-1.441,0-2.33,1.211-2.666,3.632l4.221-0.126C519.332,146.117,519.388,145.597,519.388,145.132z"/>
	<path fill="#FFFFFF" d="M563.5,145.96c0,1.792-0.099,4.039-0.294,6.74c-0.28,4.031-0.428,6.271-0.441,6.719
		c-0.056,0.938-0.098,1.462-0.125,1.575c-0.141,0.532-0.504,0.826-1.092,0.882c-1.162,0.112-2.408,0.168-3.738,0.168
		c-1.693,0-2.54-0.427-2.54-1.281c0-0.378,0.014-0.735,0.042-1.071c-1.456,0.42-2.961,0.63-4.514,0.63
		c-2.45,0-4.431-0.518-5.942-1.554c-1.735-1.218-2.604-3.002-2.604-5.354c0-2.729,1.399-4.703,4.199-5.921
		c2.016-0.868,4.599-1.302,7.747-1.302c0.574,0,1.219,0.042,1.932,0.126v-0.441c0-0.658-0.182-1.229-0.545-1.711
		c-0.365-0.483-0.869-0.725-1.512-0.725c-0.812,0-1.414,0.294-1.807,0.882c-0.434,0.658-0.818,1.022-1.154,1.092
		c-0.393,0.056-0.966,0.154-1.722,0.294c-2.044,0.378-3.353,0.567-3.927,0.567c-1.105,0-1.658-0.378-1.658-1.134
		c0-0.14,0.014-0.252,0.042-0.336c0.756-2.268,1.984-4.038,3.685-5.312c1.701-1.273,3.74-1.911,6.121-1.911
		c2.967,0,5.297,0.637,6.991,1.911C562.548,140.921,563.5,143.077,563.5,145.96z M555.837,151.692h-0.609
		c-2.436,0-3.653,0.588-3.653,1.764c0,0.966,0.819,1.449,2.456,1.449c0.49,0,1.036-0.042,1.639-0.126L555.837,151.692z"/>
	<path fill="#FFFFFF" d="M580.675,141.53c0,0.882-0.057,2.373-0.168,4.472c-0.042,0.812-0.707,1.218-1.994,1.218
		c-0.295,0-0.672-0.035-1.135-0.105c-0.602-0.084-0.979-0.133-1.133-0.147l0.084,13.186c0,0.868-0.945,1.302-2.835,1.302
		c-0.476,0-1.967-0.077-4.472-0.231c-0.742-0.042-1.1-0.413-1.071-1.113l0.336-14.193h-0.642c-1.117,0-1.725-0.357-1.82-1.071
		c-0.248-1.903-0.373-3.366-0.373-4.388c0-0.742,0.504-1.113,1.512-1.113l1.323,0.084c-0.015-0.364-0.05-1.113-0.104-2.247
		c-0.043-0.938-0.063-1.693-0.063-2.268c0-1.189,0.35-1.854,1.05-1.995c0.252-0.042,0.615-0.063,1.092-0.063
		c1.483,0,3.163,0.042,5.039,0.126c0.742,0.028,1.084,0.399,1.029,1.113l-0.379,5.417c0.561,0.028,1.4,0.07,2.52,0.126
		c0.896,0.056,1.463,0.161,1.701,0.315C580.507,140.193,580.675,140.718,580.675,141.53z"/>
	<path fill="#FFFFFF" d="M615.214,132.816c0,0.742-0.33,1.113-0.987,1.113c-0.238,0-0.591-0.021-1.061-0.063
		c-0.469-0.042-0.822-0.063-1.06-0.063c-2.002,0-3.262,0.574-3.779,1.722c-0.238,0.532-0.393,1.995-0.463,4.388
		c0.561,0.014,1.407,0.042,2.541,0.084c0.91,0.042,1.49,0.147,1.742,0.315c0.35,0.252,0.525,0.791,0.525,1.617
		c0,1.246-0.057,2.765-0.168,4.556c-0.057,0.798-0.729,1.197-2.016,1.197c0.224,0-0.553-0.084-2.33-0.252l0.084,13.333
		c0.014,0.854-0.932,1.281-2.835,1.281c-1.063,0-2.583-0.07-4.556-0.21c-0.742-0.056-1.1-0.427-1.071-1.113l0.378-14.361h-0.693
		c-1.119,0-1.735-0.357-1.848-1.071c-0.252-1.722-0.377-3.198-0.377-4.43c0-0.756,0.518-1.134,1.553-1.134
		c0.014,0,0.441,0.035,1.281,0.105c-0.028-0.672-0.042-1.68-0.042-3.023c0-1.582,0.056-2.667,0.168-3.254
		c0.518-2.729,1.722-4.868,3.611-6.415c1.89-1.546,4.228-2.32,7.013-2.32c1.638,0,2.869,0.182,3.695,0.546
		c0.462,0.21,0.693,0.574,0.693,1.092V132.816z"/>
	<path fill="#FFFFFF" d="M624.599,135.357c0,1.358-0.484,2.513-1.452,3.464c-0.968,0.952-2.132,1.428-3.493,1.428
		c-1.374,0-2.559-0.483-3.555-1.449s-1.494-2.134-1.494-3.506c0-1.357,0.487-2.512,1.463-3.464c0.975-0.952,2.143-1.428,3.502-1.428
		c1.375,0,2.557,0.483,3.546,1.449S624.599,133.985,624.599,135.357z M624.074,142.349l-0.398,17.028
		c-0.014,0.714-0.357,1.092-1.029,1.134c-2.338,0.14-3.87,0.21-4.598,0.21c-1.848,0-2.765-0.434-2.75-1.302l0.252-17.196
		c0.014-0.672,0.377-1.029,1.092-1.071c1.693-0.084,3.135-0.126,4.324-0.126C623.052,141.026,624.087,141.467,624.074,142.349z"/>
	<path fill="#FFFFFF" d="M643.349,142.061c0,1.662-0.406,2.492-1.219,2.492c-2.926,0-4.976,0.77-6.151,2.31l0.608,12.22
		c0.043,0.952-1.049,1.428-3.275,1.428c-0.461,0-1.162-0.024-2.1-0.074c-0.938-0.049-1.637-0.073-2.1-0.073
		c-0.713,0-1.092-0.357-1.133-1.071l-0.987-22.739c-0.028-0.742,0.336-1.113,1.092-1.113h6.235c0.602,0,0.987,0.378,1.155,1.134
		c0.056,0.28,0.084,0.889,0.084,1.827v0.168c1.777-1.273,3.597-1.911,5.459-1.911c1.315,0,2.001,0.384,2.058,1.152
		C643.257,140.253,643.349,141.67,643.349,142.061z"/>
	<path fill="#FFFFFF" d="M664.66,141.11c0,0.238-0.574,1.064-1.722,2.478c-1.022,1.288-1.735,2.128-2.142,2.52
		c-0.266,0.252-0.539,0.378-0.818,0.378c-0.057,0-0.802-0.396-2.236-1.186c-1.436-0.791-2.754-1.187-3.958-1.187
		c-0.49,0-0.735,0.133-0.735,0.399c0,0.168,0.477,0.441,1.428,0.82c3.443,1.332,5.641,2.306,6.594,2.922
		c2.309,1.527,3.464,3.476,3.464,5.844c0,5.06-3.38,7.589-10.142,7.589c-1.637,0-3.352-0.379-5.144-1.136
		c-1.932-0.813-3.346-1.83-4.241-3.05c-0.168-0.225-0.252-0.484-0.252-0.779c0-0.294,0.084-0.533,0.252-0.715l3.611-4.103
		c0.224-0.252,0.496-0.378,0.818-0.378c0.098,0,0.865,0.402,2.299,1.208c1.436,0.805,2.607,1.207,3.518,1.207
		c0.742,0,1.113-0.196,1.113-0.588c0-0.21-0.463-0.47-1.387-0.778c-3.514-1.191-5.76-2.102-6.739-2.733
		c-2.212-1.429-3.317-3.447-3.317-6.054c0-2.214,1.168-4.078,3.506-5.591c2.059-1.359,4.256-2.039,6.594-2.039
		c1.665,0,3.38,0.385,5.144,1.155c1.876,0.798,3.289,1.82,4.241,3.065C664.576,140.599,664.66,140.844,664.66,141.11z"/>
	<path fill="#FFFFFF" d="M681.435,141.53c0,0.882-0.056,2.373-0.168,4.472c-0.041,0.812-0.707,1.218-1.994,1.218
		c-0.294,0-0.672-0.035-1.134-0.105c-0.603-0.084-0.979-0.133-1.134-0.147l0.084,13.186c0,0.868-0.945,1.302-2.834,1.302
		c-0.477,0-1.967-0.077-4.473-0.231c-0.742-0.042-1.1-0.413-1.07-1.113l0.336-14.193h-0.643c-1.117,0-1.724-0.357-1.82-1.071
		c-0.248-1.903-0.372-3.366-0.372-4.388c0-0.742,0.504-1.113,1.512-1.113l1.323,0.084c-0.015-0.364-0.05-1.113-0.105-2.247
		c-0.042-0.938-0.062-1.693-0.062-2.268c0-1.189,0.35-1.854,1.049-1.995c0.252-0.042,0.616-0.063,1.092-0.063
		c1.484,0,3.164,0.042,5.039,0.126c0.742,0.028,1.085,0.399,1.029,1.113l-0.378,5.417c0.56,0.028,1.399,0.07,2.52,0.126
		c0.896,0.056,1.462,0.161,1.7,0.315C681.267,140.193,681.435,140.718,681.435,141.53z"/>
	<path fill="#FFFFFF" d="M509.34,235.263c0,11.35-6.616,19.101-19.847,23.251c-7.909,2.514-19.201,3.771-33.877,3.771h-10.152
		c-2.053,0-3.08-1.029-3.08-3.086v-82.608c0-2.018,1.026-3.028,3.08-3.028h9.923c14.752,0,26.082,1.238,33.99,3.713
		c13.309,4.152,19.962,11.921,19.962,23.309c0,6.855-3.199,12.625-9.598,17.31C506.141,222.619,509.34,228.408,509.34,235.263z
		 M483.804,202.014c0-4.989-4.209-7.598-12.626-7.827v14.968C479.595,208.47,483.804,206.09,483.804,202.014z M483.804,233.721
		c0-4.037-4.209-6.379-12.626-7.027v14.968C479.595,241.357,483.804,238.71,483.804,233.721z"/>
	<path fill="#FFFFFF" d="M543.628,179.791l-1.656,75.01c-0.039,1.904-0.971,2.875-2.799,2.914l-18.625,0.342
		c-0.799,0-1.467-0.305-1.999-0.914c-0.534-0.609-0.8-1.313-0.8-2.113l0.971-75.696c0-2.094,0.934-3.123,2.8-3.085l19.31,0.343
		C542.734,176.63,543.667,177.697,543.628,179.791z"/>
	<path fill="#FFFFFF" d="M614.995,198.358c0,2.057-1.067,3.085-3.199,3.085h-14.511l0.514,55.187c0,1.979-0.99,3.008-2.971,3.085
		l-20.68,0.457c-2.02,0.037-3.028-0.991-3.028-3.085v-55.644h-16.721c-2.03,0-3.046-1.028-3.046-3.085v-15.196
		c0-2.018,1.009-3.028,3.027-3.028h57.415c2.132,0,3.199,1.01,3.199,3.028V198.358z"/>
	<path fill="#FFFFFF" d="M680.933,252.917c0,2.019-0.972,3.027-2.914,3.027h-52.273c-1.98,0-2.971-1.009-2.971-3.027v-75.811
		c0-2.057,0.988-3.085,2.965-3.085h52.285c1.938,0,2.908,1.028,2.908,3.085v15.196c0,2.019-0.975,3.028-2.925,3.028h-28.896v9.483
		h22.565c1.98,0,2.971,1.01,2.971,3.028v15.253c0,2.019-0.986,3.028-2.957,3.028h-22.579v8.512h28.918
		c1.935,0,2.903,1.028,2.903,3.085V252.917z"/>
</g>
</svg>
