<?xml version="1.0" encoding="utf-8"?>
<!-- Generator: Adobe Illustrator 15.1.0, SVG Export Plug-In  -->
<!DOCTYPE svg PUBLIC "-//W3C//DTD SVG 1.1//EN" "http://www.w3.org/Graphics/SVG/1.1/DTD/svg11.dtd" [
	<!ENTITY ns_flows "http://ns.adobe.com/Flows/1.0/">
]>
<svg version="1.1"
	 xmlns="http://www.w3.org/2000/svg" xmlns:xlink="http://www.w3.org/1999/xlink" xmlns:a="http://ns.adobe.com/AdobeSVGViewerExtensions/3.0/"
	 x="0px" y="0px" width="46px" height="46px" viewBox="-0.431 -0.45 46 46"
	 overflow="visible" enable-background="new -0.431 -0.45 46 46" xml:space="preserve">
<defs>
</defs>
<path fill="#5AB8A3" d="M22.553,0C10.098,0,0,10.098,0,22.553c0,12.456,10.098,22.553,22.553,22.553
	c12.457,0,22.553-10.097,22.553-22.553C45.106,10.098,35.01,0,22.553,0z M32.22,23.059c-2.077,8.423-16.014,11.997-22.425,3.25
	c2.455,2.346,6.731,2.553,9.444-0.251c-1.591,0.231-2.747-1.329-0.794-2.172c-1.757,0.191-2.733-0.743-3.135-1.538
	c0.412-0.431,0.866-0.631,1.745-0.689c-1.923-0.455-2.634-1.396-2.851-2.539c0.534-0.127,1.202-0.237,1.567-0.188
	c-1.686-0.882-2.271-2.208-2.179-3.205c3.011,1.119,4.929,2.017,6.533,2.878c0.572,0.305,1.209,0.854,1.929,1.552
	c0.916-2.423,2.048-4.92,3.986-6.159c-0.032,0.281-0.183,0.542-0.382,0.757c0.55-0.5,1.264-0.844,1.989-0.943
	c-0.083,0.545-0.867,0.852-1.341,1.031c0.358-0.112,2.266-0.963,2.474-0.478c0.245,0.551-1.316,0.806-1.582,0.901
	c-0.198,0.066-0.396,0.139-0.592,0.218c2.418-0.241,4.726,1.755,5.398,4.231c0.048,0.179,0.097,0.376,0.139,0.584
	c0.885,0.33,2.486-0.017,3.003-0.333c-0.373,0.883-1.343,1.534-2.774,1.652c0.689,0.286,1.989,0.444,2.886,0.292
	C34.689,22.52,33.775,23.071,32.22,23.059z"/>
</svg>
