<?xml version="1.0" encoding="utf-8"?>
<!-- Generator: Adobe Illustrator 15.1.0, SVG Export Plug-In  -->
<!DOCTYPE svg PUBLIC "-//W3C//DTD SVG 1.1//EN" "http://www.w3.org/Graphics/SVG/1.1/DTD/svg11.dtd" [
	<!ENTITY ns_flows "http://ns.adobe.com/Flows/1.0/">
]>
<svg version="1.1"
	 xmlns="http://www.w3.org/2000/svg" xmlns:xlink="http://www.w3.org/1999/xlink" xmlns:a="http://ns.adobe.com/AdobeSVGViewerExtensions/3.0/"
	 x="0px" y="0px" viewBox="-0.109 -0.592 219 262"
	 overflow="visible" enable-background="new -0.109 -0.592 219 262" xml:space="preserve">
<defs>
</defs>
<path fill="#E63976" d="M115.008,36.213c0,0,2.864-17.176,20.039-13.496c17.178,3.68-5.314,45.805-6.541,47.85
	c0,0-48.471-9.584-38.854-31.082C96.605,23.944,115.008,36.213,115.008,36.213z"/>
<path fill="#F27490" d="M62.927,31.248c0,0,7.896-8.809,16.407-0.442c8.51,8.366-19.729,24.332-21.178,25.058
	c0,0-24.306-23.146-10.962-31.973C56.84,17.51,62.927,31.248,62.927,31.248z"/>
<path fill="#E63976" d="M95.549,3.704c0,0,2.371-5.647,7.952-2.996c5.581,2.652-5.532,15.248-6.117,15.849
	c0,0-15.814-7.208-10.78-13.787C90.244-1.986,95.549,3.704,95.549,3.704z"/>
<path fill="#8E1B1C" d="M19.543,106.942l5.396,61.135L0,257.242c0,0,6.201-3.078,13.76-3.844l18.733-88.346L24.427,60.927
	c-5.188,1.552-8.558,4.382-8.558,4.382L19.543,106.942z"/>
<path fill="#84251A" d="M40.715,62.333c-0.071-0.035-0.142-0.085-0.214-0.121l4.837,99.529L40.715,62.333z"/>
<path fill="#8E1B1C" d="M79.143,100.205L76.32,65.309c0,0-2.267,1.727-5.907,3.222l-6.185,92.731L49.72,260.665
	c6.118-1.121,10.733-3.423,10.733-3.423l21.913-105.036L79.143,100.205z"/>
<path fill="#CD3027" d="M40.501,62.212c-6.036-2.979-11.701-2.593-16.074-1.286l8.066,104.126L13.76,253.398
	c2.578-0.261,5.312-0.243,8.017,0.251l23.562-91.908L40.501,62.212z"/>
<path fill="#CD3027" d="M70.413,68.531c-3.553,1.462-8.411,2.699-13.74,1.892v90.84v3.79l-16.791,95.983
	c3.401,0.448,6.802,0.187,9.837-0.371l14.509-99.402L70.413,68.531z"/>
<path fill="#FAF3BC" d="M45.339,65.309c-1.554-1.245-3.1-2.206-4.624-2.976l4.624,99.408l-23.562,91.908
	c0.809,0.146,1.615,0.35,2.414,0.589c2.098,0.629,4.142,1.583,6.036,3.004c2.966,2.224,6.298,3.348,9.633,3.792
	c0.008,0,0.016,0.002,0.024,0.002l16.791-95.983v-3.79v-90.84C53.026,69.871,49.16,68.364,45.339,65.309z"/>
<path fill="#FED29C" d="M111.542,207.717l9.361,46.813c0,0,10.664,7.542,37.452,6.762c26.787-0.781,34.85-8.583,34.85-8.583
	l10.662-53.575L111.542,207.717z"/>
<path fill="#5AB8A3" d="M90.085,183.01c0,0,3.901-19.244,18.335-23.667c0,0-2.731-29.779,55.785-27.829
	c0,0,38.231-0.908,33.16,27.829c0,0,24.187,4.551,20.677,23.667c-3.512,19.115-28.868,39.402-65.93,39.402
	C115.051,222.412,88.915,201.345,90.085,183.01z"/>
<path fill="#349C79" d="M108.421,158.953c0,0,6.24,14.304,23.796,16.255c17.555,1.949,37.841-1.951,38.232,2.729
	c0.391,4.682-32.16,19.896-56.957,7.022C101.853,178.918,106.859,168.837,108.421,158.953z"/>
<ellipse transform="matrix(0.98 -0.1988 0.1988 0.98 -44.8991 31.0743)" fill="#F3B27D" cx="132.28" cy="239.105" rx="3.465" ry="16.84"/>
<path fill="#F3B27D" d="M188.109,237.745c-1.075,9.238-3.525,16.544-5.478,16.317c-1.95-0.226-2.666-7.899-1.59-17.138
	c1.069-9.238,3.522-16.543,5.474-16.318C188.467,220.835,189.182,228.507,188.109,237.745z"/>
<path fill="#F3B27D" d="M161.476,241.875c-0.06,9.3-1.562,16.83-3.357,16.819c-1.793-0.012-3.203-7.56-3.146-16.859
	c0.06-9.301,1.561-16.83,3.356-16.82C160.124,225.025,161.532,232.574,161.476,241.875z"/>
<polygon fill-rule="evenodd" clip-rule="evenodd" fill="#B4C441" points="130.039,120.243 216.185,124.101 209.172,56.606 
	96.975,67.125 98.729,118.841 108.126,119.262 108.23,135.494 "/>
<path fill="#FFFFFF" d="M116.17,74.097c0,0.077-1.158,2.107-3.472,6.089c-0.275,0.478-0.413,0.723-0.413,0.738l0.044,2.994
	c0,0.019-0.015,0.039-0.044,0.058l-3.551,0.058c-0.024-0.014-0.036-1.051-0.036-3.11c0,0.005-0.132-0.246-0.397-0.752
	c-2.123-4.036-3.183-6.075-3.183-6.119c0.004-0.019,0.019-0.039,0.043-0.059l3.588,0.044c0.019,0.005,0.033,0.015,0.043,0.029
	l1.569,4.282c0.02,0.058,0.077,0.087,0.174,0.087c0.106,0,0.171-0.029,0.195-0.087c0.588-1.427,1.191-2.864,1.809-4.311h3.602
	C116.154,74.054,116.164,74.073,116.17,74.097z"/>
<path fill="#FFFFFF" d="M124.463,79.891c0,0.974-0.25,1.815-0.751,2.524c-0.662,0.945-1.661,1.417-3.002,1.417
	c-1.519,0-2.66-0.393-3.428-1.179c-0.637-0.651-0.955-1.492-0.955-2.525c0-1.084,0.224-1.984,0.672-2.698
	c0.637-1.017,1.672-1.525,3.103-1.525c1.524,0,2.67,0.444,3.437,1.33C124.155,77.949,124.463,78.834,124.463,79.891z
	 M121.737,79.963c0-0.343-0.1-0.632-0.297-0.869c-0.251-0.298-0.622-0.447-1.114-0.447c-0.502,0-0.892,0.205-1.171,0.614
	c-0.217,0.319-0.325,0.662-0.325,1.027c0,0.877,0.474,1.316,1.424,1.316c0.525,0,0.921-0.203,1.187-0.608
	C121.638,80.698,121.737,80.354,121.737,79.963z"/>
<path fill="#FFFFFF" d="M133.654,83.933c0,0.019-0.014,0.038-0.044,0.058h-2.798c-0.039-0.024-0.058-0.075-0.058-0.152
	c0-0.039,0.008-0.107,0.021-0.207c0.015-0.099,0.022-0.172,0.022-0.22c0-0.149-0.066-0.224-0.195-0.224
	c-0.045,0-0.171,0.079-0.376,0.239c-0.257,0.192-0.5,0.337-0.731,0.434c-0.376,0.155-0.786,0.231-1.229,0.231
	c-1.312,0-2.249-0.489-2.808-1.468c-0.382-0.665-0.572-1.509-0.572-2.532c0-0.506,0.063-1.863,0.188-4.071
	c0-0.02,0.017-0.039,0.045-0.058l2.77,0.152c0.01,0.004,0.014,0.024,0.014,0.058c-0.029,1.832-0.042,3.139-0.042,3.919
	c0,1.178,0.394,1.766,1.185,1.766c0.82,0,1.362-0.306,1.627-0.918c0.053-0.039,0.081-0.068,0.081-0.087l-0.081-4.505
	c0-0.034,0.006-0.053,0.016-0.058l2.893-0.058c0.028,0.014,0.044,0.033,0.044,0.058L133.654,83.933z"/>
<path fill="#FFFFFF" d="M148.753,80.526c0,0.926-0.308,1.729-0.925,2.409c-0.743,0.824-1.792,1.236-3.147,1.236
	c-0.485,0-0.976-0.099-1.468-0.297c-0.024-0.01-0.063-0.014-0.116-0.014c-0.124,0-0.186,0.038-0.181,0.116l0.043,0.976
	c0.006,0.02-0.019,0.039-0.071,0.058l-2.698-0.044c-0.029-0.019-0.043-0.042-0.043-0.072l-0.442-11.615
	c0-0.024,0.016-0.048,0.045-0.072l3.051-0.015c0.016,0.015,0.039,1.196,0.073,3.544c0,0.077,0.061,0.115,0.181,0.115
	c0.029,0,0.142-0.011,0.337-0.036c0.194-0.024,0.353-0.036,0.474-0.036c1.504,0,2.716,0.396,3.638,1.186
	C148.336,78.681,148.753,79.534,148.753,80.526z M145.376,80.968c0-0.468-0.194-0.836-0.578-1.107
	c-0.404-0.279-0.973-0.419-1.701-0.419c-0.14,0-0.209,0.042-0.209,0.123v2.488c0,0.135,0.312,0.203,0.934,0.203
	C144.856,82.255,145.376,81.826,145.376,80.968z"/>
<path fill="#FFFFFF" d="M157.518,79.044c0,0.482-0.048,1.482-0.145,3.001c-0.106,1.668-0.195,2.524-0.268,2.567l-2.25,0.015
	c-0.029-0.015-0.043-0.039-0.043-0.072c0-0.083,0.01-0.203,0.029-0.365c0.019-0.162,0.029-0.281,0.029-0.358
	c0-0.083-0.062-0.123-0.182-0.123c-0.015,0-0.039,0.004-0.072,0.014c-0.762,0.208-1.497,0.311-2.206,0.311
	c-1.069,0-1.894-0.196-2.469-0.589c-0.577-0.393-0.865-0.937-0.865-1.632c0-0.824,0.496-1.458,1.489-1.901
	c0.869-0.381,1.978-0.572,3.327-0.572c0.126,0,0.315,0.013,0.568,0.037c0.254,0.024,0.438,0.036,0.553,0.036
	c0.122,0,0.182-0.192,0.182-0.578c0-0.27-0.119-0.508-0.354-0.716c-0.261-0.231-0.599-0.348-1.013-0.348
	c-0.564,0-0.994,0.208-1.287,0.623c-0.02,0.04-0.06,0.092-0.115,0.159l-2.626,0.296c-0.023-0.009-0.039-0.028-0.044-0.058
	c0.009-0.004,0.021-0.014,0.029-0.028c0.775-1.649,2.062-2.474,3.854-2.474C156.226,76.289,157.518,77.207,157.518,79.044z
	 M155.073,80.982c0.01-0.105-0.321-0.158-0.991-0.158c-0.525,0-0.95,0.084-1.272,0.252c-0.347,0.183-0.521,0.439-0.521,0.767
	c0,0.583,0.513,0.875,1.54,0.875c0.752,0,1.133-0.065,1.143-0.196L155.073,80.982z"/>
<path fill="#FFFFFF" d="M166.897,84.417c0,0.025-0.011,0.046-0.028,0.066l-3.097,0.115l-0.015-0.015l-2.357-2.191
	c-0.044-0.039-0.086-0.058-0.13-0.058c-0.136,0-0.2,0.038-0.195,0.115c0,0.009,0.014,0.268,0.043,0.774
	c0.049,0.795,0.073,1.353,0.073,1.67c0,0.024-0.016,0.044-0.044,0.058l-2.842-0.116c-0.012-0.01-0.015-0.029-0.015-0.058
	l0.18-11.456c0-0.02,0.011-0.034,0.029-0.043l3.016-0.087c0.025,0.015,0.036,0.034,0.036,0.058l-0.491,6.459
	c0.049,0.083,0.108,0.123,0.181,0.123c0.077,0,0.13-0.027,0.159-0.08l2.003-3.378l2.959-0.028c0.028,0.024,0.043,0.043,0.043,0.058
	c0,0.043-0.785,1.442-2.352,4.195c-0.12,0.208-0.18,0.321-0.18,0.34c0,0.072,0.503,0.646,1.51,1.721
	C166.393,83.736,166.897,84.321,166.897,84.417z"/>
<path fill="#FFFFFF" d="M174.215,83.875c-0.025,0.111-0.338,0.21-0.941,0.297c-0.485,0.067-0.871,0.101-1.155,0.101
	c-1.669,0-2.961-0.404-3.877-1.214c-0.807-0.718-1.209-1.63-1.209-2.739c0-1.05,0.249-2.016,0.746-2.897
	c0.685-1.214,1.693-1.821,3.029-1.821c2.223,0,3.335,1.167,3.335,3.502c0,0.222-0.053,0.544-0.159,0.968
	c-0.131,0.506-0.27,0.795-0.42,0.868l-3.876-0.116c-0.13-0.005-0.195,0.038-0.195,0.129c0,0.121,0.065,0.308,0.195,0.565
	c0.361,0.723,1.087,1.085,2.177,1.085c0.598,0,1.328-0.13,2.192-0.392c0.022,0.02,0.057,0.275,0.1,0.767
	C174.195,83.441,174.215,83.74,174.215,83.875z M172.232,78.917c0-0.721-0.372-1.081-1.113-1.081c-0.564,0-1,0.243-1.31,0.728
	c-0.231,0.365-0.347,0.756-0.347,1.174c0,0.092,0.064,0.137,0.195,0.137l2.192-0.057C172.104,79.808,172.232,79.508,172.232,78.917z
	"/>
<path fill="#FFFFFF" d="M195.02,80.02c0,0.232-0.036,0.917-0.107,2.054c-0.083,1.206-0.141,1.815-0.175,1.83l-2.741-0.166
	l-0.058-0.058c-0.009-0.173-0.005-0.398,0.016-0.672c0.029-0.381,0.042-0.605,0.042-0.672c0.034-0.969,0.051-1.816,0.051-2.539
	c0-1.124-0.396-1.686-1.185-1.686c-1.014,0-1.596,0.396-1.752,1.187v0.282c0,1.523-0.038,2.847-0.115,3.97
	c-0.005,0.024-0.014,0.043-0.028,0.058l-2.741,0.043c-0.029-0.023-0.048-0.043-0.052-0.058l-0.027-3.84
	c-0.011-1.215-0.42-1.823-1.23-1.823c-0.864,0-1.409,0.333-1.641,0.999c0,0.004,0,0.02,0,0.043l0.136,4.499
	c0,0.034-0.006,0.055-0.021,0.064l-2.887,0.087c-0.01-0.009-0.08-2.577-0.209-7.703c0-0.033,0.005-0.053,0.014-0.058l2.807-0.043
	c0.048,0.024,0.072,0.092,0.072,0.203c0,0.047-0.006,0.127-0.018,0.238c-0.013,0.111-0.019,0.193-0.019,0.246
	c0,0.193,0.069,0.289,0.21,0.289c0.053,0,0.098-0.014,0.137-0.043c0.424-0.352,0.745-0.588,0.963-0.708
	c0.419-0.242,0.857-0.362,1.315-0.362c1.118,0,1.958,0.372,2.517,1.114c0.023,0.029,0.133,0.191,0.326,0.485
	c0.033,0.054,0.08,0.08,0.138,0.08c0.082,0,0.24-0.13,0.478-0.391c0.299-0.323,0.586-0.564,0.859-0.723
	c0.454-0.255,0.984-0.384,1.593-0.384C193.908,75.861,195.02,77.248,195.02,80.02z"/>
<path fill="#FFFFFF" d="M204.093,83.875c-0.023,0.111-0.337,0.21-0.939,0.297c-0.486,0.067-0.873,0.101-1.156,0.101
	c-1.669,0-2.961-0.404-3.877-1.214c-0.806-0.718-1.207-1.63-1.207-2.739c0-1.05,0.247-2.016,0.744-2.897
	c0.685-1.214,1.694-1.821,3.029-1.821c2.223,0,3.336,1.167,3.336,3.502c0,0.222-0.054,0.544-0.161,0.968
	c-0.129,0.506-0.269,0.795-0.419,0.868l-3.876-0.116c-0.13-0.005-0.195,0.038-0.195,0.129c0,0.121,0.065,0.308,0.195,0.565
	c0.363,0.723,1.088,1.085,2.178,1.085c0.598,0,1.328-0.13,2.19-0.392c0.024,0.02,0.058,0.275,0.102,0.767
	C204.075,83.441,204.093,83.74,204.093,83.875z M202.113,78.917c0-0.721-0.372-1.081-1.114-1.081c-0.564,0-1.001,0.243-1.31,0.728
	c-0.232,0.365-0.347,0.756-0.347,1.174c0,0.092,0.064,0.137,0.194,0.137l2.192-0.057C201.983,79.808,202.113,79.508,202.113,78.917z
	"/>
<path fill="#FFFFFF" d="M124.54,105.396c0,2.519-1.728,4.275-5.184,5.268c-2.39,0.689-5.873,1.034-10.45,1.034
	c-0.267,0-0.786,0-1.558,0c-0.653-0.009-1.168-0.009-1.544,0c-0.046-0.027-0.069-0.07-0.069-0.125V90.31
	c0-0.056,0.009-0.093,0.028-0.111c0.386,0.01,0.905,0.01,1.558,0c0.772,0,1.291,0,1.558,0c4.577,0,8.065,0.345,10.464,1.034
	c3.466,0.984,5.198,2.74,5.198,5.269c0,1.581-1.081,3-3.244,4.26c-0.092,0.056-0.138,0.111-0.138,0.166
	c0,0.083,0.045,0.151,0.138,0.207C123.459,102.394,124.54,103.814,124.54,105.396z M118.438,96.854c0-1.776-1.753-2.665-5.26-2.665
	c-0.249,0-0.373,0.073-0.373,0.219l0.069,4.725c0,0.155,0.128,0.233,0.387,0.233c0.35,0,0.851-0.05,1.504-0.151
	C117.214,98.868,118.438,98.081,118.438,96.854z M118.438,104.987c0-1.225-1.224-2.007-3.673-2.348
	c-0.681-0.092-1.183-0.138-1.504-0.138c-0.259,0-0.387,0.074-0.387,0.221v4.75c0,0.156,0.109,0.234,0.33,0.234
	c1.501,0,2.711-0.207,3.632-0.622C117.903,106.606,118.438,105.907,118.438,104.987z"/>
<path fill="#FFFFFF" d="M142.021,110.081c0,0.037-0.037,0.074-0.111,0.111h-15.781c-0.056-0.037-0.082-0.074-0.082-0.111
	l-0.168-18.999c0-0.038,0.028-0.079,0.084-0.125l6.311-0.11c0.055,0.047,0.082,0.083,0.082,0.11l0.056,14.83
	c0,0.147,0.115,0.221,0.344,0.221h9.155c0.074,0.036,0.111,0.083,0.111,0.138V110.081z"/>
<path fill="#FFFFFF" d="M162.884,91.979l-0.304,11.061c-0.164,5.578-3.363,8.367-9.597,8.367c-6.204,0-9.305-2.706-9.305-8.119
	c0-0.7,0.068-4.497,0.207-11.392c0-0.045,0.027-0.082,0.083-0.11l6.53,0.304l0.083,0.125c-0.01,0.018-0.037,0.792-0.083,2.32
	c-0.147,4.86-0.222,7.327-0.222,7.4v0.939c0,2.412,0.94,3.618,2.817,3.618c1.27,0,2.131-0.502,2.582-1.505
	c0.249-0.552,0.382-1.381,0.4-2.486l0.138-10.383c0-0.047,0.019-0.083,0.055-0.111l6.559-0.137
	C162.865,91.896,162.884,91.934,162.884,91.979z"/>
<path fill="#FFFFFF" d="M183.79,94.051c0,0.045-1.33,1.385-3.992,4.018c-2.218-1.417-4.34-2.126-6.365-2.126
	c-1.296,0-1.946,0.368-1.946,1.104c0,0.488,1.04,1.06,3.12,1.712c2.817,0.883,4.75,1.625,5.8,2.223
	c2.08,1.196,3.121,2.683,3.121,4.459c0,3.958-3.231,5.938-9.693,5.938c-1.731,0-3.471-0.345-5.219-1.035
	c-1.658-0.664-2.965-1.487-3.923-2.472c-0.027-0.028-0.045-0.065-0.055-0.111c0-0.037,1.34-1.33,4.019-3.88
	c0.947,0.46,1.896,0.92,2.844,1.381c1.188,0.497,2.277,0.746,3.271,0.746c1.446,0,2.169-0.405,2.169-1.215
	c0-0.561-1.04-1.118-3.12-1.67c-2.837-0.746-4.776-1.409-5.827-1.989c-2.08-1.15-3.12-2.729-3.12-4.736
	c0-1.537,1.003-2.917,3.01-4.142c1.979-1.197,4.188-1.796,6.628-1.796c1.785,0,3.543,0.336,5.273,1.009
	c1.657,0.643,2.975,1.463,3.949,2.457C183.761,93.963,183.779,94.004,183.79,94.051z"/>
<path fill="#FFFFFF" d="M204.942,90.489l-0.166,19.33c0,0.056-0.019,0.098-0.055,0.125l-6.186,0.193
	c-0.02-0.018-0.046-2.195-0.083-6.53c0-0.147-0.12-0.221-0.36-0.221h-5.618c-0.202,0-0.305,0.074-0.305,0.221v6.213
	c0,0.028-0.04,0.069-0.125,0.125l-6.103,0.193c-0.055-0.027-0.083-0.064-0.083-0.11l-0.055-19.565c0-0.037,0.027-0.078,0.083-0.124
	l6.393,0.027c0.056,0.046,0.083,0.088,0.083,0.125l-0.083,8.477c0,0.147,0.12,0.222,0.359,0.222h5.468
	c0.239,0,0.358-0.074,0.358-0.222c0,0.047-0.008-0.8-0.026-2.54c-0.019-1.676-0.028-2.992-0.028-3.95c0-1.38,0.028-2.094,0.083-2.14
	l6.394,0.027C204.924,90.401,204.942,90.442,204.942,90.489z"/>
</svg>
